<svg width="24" height="24" viewBox="0 0 24 24" fill="none" xmlns="http://www.w3.org/2000/svg">
<path d="M17 11H19C19.5304 11 20.0391 11.2107 20.4142 11.5858C20.7893 11.9609 21 12.4696 21 13V15C21 15.2652 20.8946 15.5196 20.7071 15.7071C20.5196 15.8946 20.2652 16 20 16H18.5M17 11H10.5M17 11L14.583 6.971C14.4053 6.67485 14.1539 6.42976 13.8534 6.25959C13.5529 6.08943 13.2134 6 12.868 6H10.5M18.5 16C18.5 16.5304 18.2893 17.0391 17.9142 17.4142C17.5391 17.7893 17.0304 18 16.5 18C15.9696 18 15.4609 17.7893 15.0858 17.4142C14.7107 17.0391 14.5 16.5304 14.5 16M18.5 16C18.5 15.4696 18.2893 14.9609 17.9142 14.5858C17.5391 14.2107 17.0304 14 16.5 14C15.9696 14 15.4609 14.2107 15.0858 14.5858C14.7107 14.9609 14.5 15.4696 14.5 16M10.5 11V6M10.5 11H5M10.5 6H7.64C7.17747 5.99982 6.72918 6.15995 6.37144 6.45314C6.01371 6.74633 5.76866 7.15444 5.678 7.608L5 11M5 11C4.46957 11 3.96086 11.2107 3.58579 11.5858C3.21071 11.9609 3 12.4696 3 13V15C3 15.2652 3.10536 15.5196 3.29289 15.7071C3.48043 15.8946 3.73478 16 4 16H5.5M5.5 16C5.5 16.5304 5.71071 17.0391 6.08579 17.4142C6.46086 17.7893 6.96957 18 7.5 18C8.03043 18 8.53914 17.7893 8.91421 17.4142C9.28929 17.0391 9.5 16.5304 9.5 16M5.5 16C5.5 15.4696 5.71071 14.9609 6.08579 14.5858C6.46086 14.2107 6.96957 14 7.5 14C8.03043 14 8.53914 14.2107 8.91421 14.5858C9.28929 14.9609 9.5 15.4696 9.5 16M9.5 16H14.5" stroke="black" stroke-width="2" stroke-linecap="round" stroke-linejoin="round"/>
</svg>
