<svg width="20" height="20" viewBox="0 0 23 24" fill="none" xmlns="http://www.w3.org/2000/svg">
<path d="M2.12745 2.21995C2.00572 2.34694 1.93171 2.51529 1.91887 2.6944C1.90603 2.87351 1.95522 3.05148 2.05749 3.19595L2.12745 3.27995L5.99336 7.31495C4.10922 8.69448 2.76383 10.7355 2.20316 13.0649C2.16001 13.2568 2.19093 13.4586 2.28922 13.6268C2.38751 13.795 2.54529 13.9161 2.72845 13.9639C2.91162 14.0117 3.10545 13.9824 3.26808 13.8823C3.4307 13.7822 3.54904 13.6194 3.59753 13.429C4.09568 11.3614 5.32023 9.56462 7.02836 8.39495L8.76295 10.205C8.07007 10.9604 7.68826 11.969 7.69932 13.0147C7.71037 14.0603 8.1134 15.0599 8.82208 15.7992C9.53076 16.5386 10.4887 16.959 11.4908 16.9703C12.4929 16.9817 13.4594 16.5831 14.1833 15.86L19.8557 21.78C19.9839 21.9141 20.1561 21.9927 20.3376 21.9998C20.5191 22.0069 20.6964 21.9421 20.834 21.8183C20.9715 21.6946 21.0591 21.5211 21.079 21.3327C21.0989 21.1443 21.0498 20.9551 20.9414 20.8029L20.8715 20.719L15.0132 14.6049L15.0142 14.603L8.35374 7.65695L8.35566 7.65495L7.26986 6.52495L3.14328 2.21995C3.00851 2.0795 2.82583 2.00061 2.63536 2.00061C2.44489 2.00061 2.26221 2.0795 2.12745 2.21995ZM11.4999 5.49995C10.5416 5.49995 9.61203 5.64795 8.73132 5.92495L9.91678 7.16095C11.9672 6.73731 14.0952 7.15203 15.8608 8.31938C17.6265 9.48672 18.8947 11.3174 19.4033 13.433C19.453 13.6219 19.5715 13.783 19.7335 13.882C19.8956 13.9809 20.0883 14.0097 20.2705 13.9623C20.4526 13.9149 20.6098 13.795 20.7083 13.6282C20.8068 13.4614 20.8389 13.2611 20.7977 13.07C20.2785 10.9072 19.0815 8.98746 17.3968 7.61589C15.7122 6.24432 13.6367 5.49956 11.4999 5.49995ZM11.6868 9.00995L15.3294 12.81C15.2823 11.8179 14.8834 10.8795 14.2102 10.1772C13.537 9.47488 12.6376 9.05886 11.6868 9.00995Z" fill="black"/>
</svg>
