<svg width="24" height="24" viewBox="0 0 24 24" fill="none" xmlns="http://www.w3.org/2000/svg">
<path d="M8.73723 5.15C8.34999 4.81224 7.8727 4.59468 7.36376 4.52394C6.85481 4.4532 6.33628 4.53236 5.87161 4.75171C5.40695 4.97107 5.0163 5.32112 4.74747 5.75903C4.47865 6.19693 4.3433 6.70371 4.35799 7.21734C4.37268 7.73097 4.53677 8.22918 4.83019 8.651C5.1236 9.07283 5.53362 9.39998 6.01006 9.59242C6.4865 9.78486 7.00871 9.83425 7.51278 9.73454C8.01686 9.63483 8.48093 9.39034 8.84823 9.031C9.18782 9.55846 9.6543 9.9923 10.205 10.2928C10.7556 10.5933 11.3729 10.7508 12.0002 10.751C12.6274 10.751 13.2445 10.5938 13.7952 10.2937C14.3458 9.99353 14.8124 9.56009 15.1522 9.033C15.5195 9.39234 15.9836 9.63683 16.4877 9.73654C16.9917 9.83625 17.5139 9.78686 17.9904 9.59442C18.4668 9.40198 18.8768 9.07483 19.1703 8.653C19.4637 8.23118 19.6278 7.73297 19.6425 7.21934C19.6572 6.70571 19.5218 6.19893 19.253 5.76103C18.9841 5.32312 18.5935 4.97307 18.1288 4.75371C17.6642 4.53436 17.1456 4.4552 16.6367 4.52594C16.1277 4.59668 15.6505 4.81424 15.2632 5.152C14.9362 4.57463 14.4619 4.09437 13.8887 3.76022C13.3154 3.42607 12.6638 3.25001 12.0002 3.25C11.3369 3.24981 10.6854 3.42557 10.1121 3.75935C9.53891 4.09314 9.06447 4.57301 8.73723 5.15ZM9.75023 7C9.75023 6.40326 9.98728 5.83097 10.4092 5.40901C10.8312 4.98705 11.4035 4.75 12.0002 4.75C12.597 4.75 13.1693 4.98705 13.5912 5.40901C14.0132 5.83097 14.2502 6.40326 14.2502 7C14.2502 7.59674 14.0132 8.16903 13.5912 8.59099C13.1693 9.01295 12.597 9.25 12.0002 9.25C11.4035 9.25 10.8312 9.01295 10.4092 8.59099C9.98728 8.16903 9.75023 7.59674 9.75023 7ZM8.33823 6.19C8.20469 6.79465 8.22255 7.42292 8.39023 8.019C8.20073 8.3211 7.91804 8.5533 7.58488 8.6805C7.25172 8.80769 6.88621 8.82297 6.5436 8.72401C6.20099 8.62506 5.89991 8.41725 5.68587 8.13202C5.47183 7.84678 5.35647 7.49961 5.35723 7.143C5.35742 6.79497 5.46813 6.456 5.67338 6.17494C5.87863 5.89388 6.16783 5.68526 6.49929 5.57915C6.83074 5.47304 7.18733 5.47492 7.51765 5.58453C7.84797 5.69413 8.13495 5.90579 8.33723 6.189M15.6092 8.018C15.7775 7.42166 15.7953 6.79293 15.6612 6.188C15.8657 5.9012 16.1569 5.6877 16.4919 5.57898C16.8269 5.47026 17.188 5.47208 17.5219 5.58417C17.8558 5.69626 18.1449 5.91269 18.3464 6.20153C18.548 6.49038 18.6514 6.83635 18.6414 7.18842C18.6314 7.5405 18.5085 7.88004 18.2909 8.15697C18.0732 8.4339 17.7724 8.63356 17.4326 8.72651C17.0929 8.81946 16.7323 8.80077 16.404 8.67321C16.0757 8.54564 15.7971 8.31594 15.6092 8.018ZM4.95123 10.297C5.29823 10.205 5.62623 10.319 5.85223 10.483C5.94223 10.548 6.06623 10.628 6.21723 10.701C6.33283 10.7609 6.4205 10.8635 6.46161 10.9871C6.50272 11.1106 6.49403 11.2453 6.43737 11.3625C6.38071 11.4798 6.28056 11.5703 6.15822 11.6148C6.03587 11.6593 5.90098 11.6544 5.78223 11.601C5.60113 11.5138 5.42812 11.4107 5.26523 11.293C5.249 11.2814 5.23114 11.2723 5.21223 11.266L5.20523 11.265C5.07039 11.301 4.93667 11.341 4.80423 11.385L4.11823 11.609C3.86241 11.6923 3.63118 11.8376 3.44518 12.032C3.25917 12.2264 3.12418 12.4638 3.05223 12.723L2.76923 14.772C2.71323 15.175 2.92623 15.477 3.22923 15.549C3.45256 15.6037 3.72356 15.657 4.04223 15.709C4.1071 15.7195 4.16927 15.7427 4.22518 15.7772C4.2811 15.8117 4.32966 15.857 4.3681 15.9103C4.40655 15.9636 4.43412 16.0239 4.44924 16.0879C4.46436 16.1518 4.46673 16.2181 4.45623 16.283C4.44572 16.3479 4.42254 16.41 4.38801 16.466C4.35348 16.5219 4.30827 16.5704 4.25497 16.6089C4.20167 16.6473 4.14132 16.6749 4.07736 16.69C4.01341 16.7051 3.9471 16.7075 3.88223 16.697C3.58547 16.6498 3.2906 16.5914 2.99823 16.522C2.10323 16.309 1.66523 15.452 1.77823 14.635L2.07023 12.529L2.07623 12.502C2.18574 12.0738 2.40179 11.6803 2.70426 11.3581C3.00674 11.0358 3.38582 10.7953 3.80623 10.659L4.49123 10.434C4.64456 10.384 4.79789 10.3383 4.95123 10.297ZM19.1802 10.297C19.0258 10.2592 18.8649 10.2563 18.7092 10.2885C18.5536 10.3206 18.407 10.3871 18.2802 10.483C18.1902 10.548 18.0662 10.628 17.9152 10.701C17.7996 10.7609 17.7119 10.8635 17.6708 10.9871C17.6297 11.1106 17.6384 11.2453 17.6951 11.3625C17.7517 11.4798 17.8519 11.5703 17.9742 11.6148C18.0966 11.6593 18.2315 11.6544 18.3502 11.601C18.5313 11.5138 18.7043 11.4107 18.8672 11.293C18.8834 11.2814 18.9013 11.2723 18.9202 11.266L18.9272 11.265C19.0626 11.3003 19.1962 11.3403 19.3282 11.385L20.0142 11.609C20.5402 11.782 20.9392 12.203 21.0802 12.723L21.3632 14.772C21.4192 15.175 21.2072 15.477 20.9032 15.549C20.6343 15.6125 20.3631 15.6659 20.0902 15.709C20.0254 15.7195 19.9632 15.7427 19.9073 15.7772C19.8514 15.8117 19.8028 15.857 19.7643 15.9103C19.7259 15.9636 19.6983 16.0239 19.6832 16.0879C19.6681 16.1518 19.6657 16.2181 19.6762 16.283C19.6867 16.3479 19.7099 16.41 19.7444 16.466C19.779 16.5219 19.8242 16.5704 19.8775 16.6089C19.9308 16.6473 19.9911 16.6749 20.0551 16.69C20.119 16.7051 20.1854 16.7075 20.2502 16.697C20.5916 16.6403 20.8862 16.582 21.1342 16.522C22.0292 16.309 22.4672 15.452 22.3542 14.635L22.0622 12.529L22.0562 12.502C21.9467 12.0738 21.7307 11.6803 21.4282 11.3581C21.1257 11.0358 20.7466 10.7953 20.3262 10.659L19.6412 10.434C19.4891 10.3843 19.3347 10.3386 19.1802 10.297Z" fill="black"/>
<path d="M13.6531 11.712C14.0491 11.449 14.6261 11.242 15.2361 11.415C15.3961 11.4596 15.5551 11.508 15.7131 11.56L16.6721 11.875C17.2685 12.0688 17.8062 12.4103 18.2352 12.8677C18.6642 13.325 18.9707 13.8834 19.1261 14.491L19.1361 14.531L19.5451 17.481C19.7061 18.645 19.0821 19.874 17.8011 20.179C16.6311 20.458 14.7481 20.75 12.0011 20.75C9.25108 20.75 7.37008 20.458 6.19908 20.18C4.91808 19.874 4.29408 18.645 4.45508 17.482L4.86308 14.532L4.87308 14.492C5.02841 13.8841 5.33495 13.3254 5.76418 12.8679C6.19342 12.4103 6.73139 12.0688 7.32808 11.875L8.28808 11.56C8.44608 11.5086 8.60475 11.46 8.76408 11.414C9.37408 11.242 9.95208 11.449 10.3471 11.712C10.7071 11.95 11.2891 12.236 12.0001 12.236C12.7111 12.236 13.2941 11.95 13.6531 11.712ZM14.8281 12.858C14.7801 12.844 14.6571 12.846 14.4831 12.961C13.9811 13.294 13.1101 13.736 12.0001 13.736C10.8901 13.736 10.0191 13.294 9.51808 12.961C9.34308 12.846 9.22008 12.844 9.17208 12.858C9.03208 12.898 8.89341 12.9403 8.75608 12.985L7.79608 13.3C7.44611 13.4137 7.12972 13.6123 6.87515 13.8781C6.62058 14.1438 6.43573 14.4684 6.33708 14.823L5.94108 17.687C5.86608 18.231 6.15108 18.626 6.54708 18.72C7.59408 18.97 9.35808 19.25 12.0001 19.25C14.6421 19.25 16.4071 18.97 17.4531 18.72C17.8491 18.626 18.1341 18.231 18.0591 17.687L17.6631 14.823C17.5643 14.4683 17.3793 14.1436 17.1246 13.8779C16.8698 13.6121 16.5532 13.4136 16.2031 13.3L15.2451 12.985C15.107 12.9396 14.968 12.8973 14.8281 12.858Z" fill="black"/>
</svg>
