<svg width="47" height="43" viewBox="0 0 47 43" fill="none" xmlns="http://www.w3.org/2000/svg">
<path d="M13.2188 5.375C11.2711 5.375 9.40315 6.08287 8.02593 7.34288C6.64871 8.60289 5.875 10.3118 5.875 12.0938V30.9062C5.875 32.6882 6.64871 34.3971 8.02593 35.6571C9.40315 36.9171 11.2711 37.625 13.2188 37.625H33.7812C35.7289 37.625 37.5968 36.9171 38.9741 35.6571C40.3513 34.3971 41.125 32.6882 41.125 30.9062V12.0938C41.125 10.3118 40.3513 8.60289 38.9741 7.34288C37.5968 6.08287 35.7289 5.375 33.7812 5.375H13.2188ZM8.8125 12.0938C8.8125 11.0246 9.27673 9.99923 10.1031 9.24323C10.9294 8.48722 12.0501 8.0625 13.2188 8.0625H33.7812C34.9499 8.0625 36.0706 8.48722 36.8969 9.24323C37.7233 9.99923 38.1875 11.0246 38.1875 12.0938V30.9062C38.1875 31.9754 37.7233 33.0008 36.8969 33.7568C36.0706 34.5128 34.9499 34.9375 33.7812 34.9375H13.2188C12.0501 34.9375 10.9294 34.5128 10.1031 33.7568C9.27673 33.0008 8.8125 31.9754 8.8125 30.9062V12.0938ZM14.6875 18.8125C14.6875 17.387 15.3065 16.0198 16.4082 15.0118C17.51 14.0038 19.0044 13.4375 20.5625 13.4375C22.1206 13.4375 23.615 14.0038 24.7168 15.0118C25.8185 16.0198 26.4375 17.387 26.4375 18.8125C26.4375 20.238 25.8185 21.6052 24.7168 22.6132C23.615 23.6212 22.1206 24.1875 20.5625 24.1875C19.0044 24.1875 17.51 23.6212 16.4082 22.6132C15.3065 21.6052 14.6875 20.238 14.6875 18.8125ZM20.5625 10.75C19.1756 10.7498 17.8082 11.0492 16.5715 11.6237C15.3349 12.1982 14.2639 13.0316 13.4457 14.0562C12.6275 15.0807 12.0852 16.2675 11.8628 17.52C11.6405 18.7725 11.7444 20.0553 12.1662 21.2641C12.5879 22.4729 13.3155 23.5736 14.2899 24.4766C15.2643 25.3796 16.4578 26.0595 17.7735 26.4609C19.0892 26.8623 20.4899 26.974 21.8617 26.7867C23.2334 26.5995 24.5375 26.1187 25.6679 25.3834L32.7414 31.8576C33.0172 32.1099 33.3912 32.2517 33.7812 32.2517C34.1713 32.2517 34.5453 32.1099 34.8211 31.8576C35.0969 31.6053 35.2519 31.2631 35.2519 30.9062C35.2519 30.5494 35.0969 30.2072 34.8211 29.9549L27.7447 23.4834C28.6817 22.2773 29.2378 20.8585 29.3521 19.3825C29.4665 17.9065 29.1346 16.4301 28.393 15.1152C27.6513 13.8002 26.5283 12.6974 25.1472 11.9274C23.766 11.1575 22.1799 10.7501 20.5625 10.75Z" fill="#EB6D6D"/>
</svg>
